name rise32.9588peak41.5061fall63.4684.mot
datacolumns 19
datarows 21
range 4.88498200000000 4.91831200000000
endheader
time	ground_force1_vx	ground_force1_vy	ground_force1_vz	ground_force1_px	ground_force1_py	ground_force1_pz	ground_force2_vx	ground_force2_vy	ground_force2_vz	ground_force2_px	ground_force2_py	ground_force2_pz	ground_torque1_x	ground_torque1_y	ground_torque1_z	ground_torque2_x	ground_torque2_y	ground_torque2_z	
4.88498200000000	48.62480600000000	769.26491999999996	57.28089400000000	0.29473400000000	0.00000000000000	0.11272400000000	0.00000000000000	0.00000000000000	0.00000000000000	0.00000000000000	0.00000000000000	0.00000000000000	0.00000000000000	21.56720200000000	0.00000000000000	0.00000000000000	0.00000000000000	0.00000000000000	
4.88665000000000	48.06944600000000	770.22856700000000	57.10484400000000	0.29384300000000	0.00000000000000	0.11271900000000	0.00000000000000	0.00000000000000	0.00000000000000	0.00000000000000	0.00000000000000	0.00000000000000	0.00000000000000	21.45573400000000	0.00000000000000	0.00000000000000	0.00000000000000	0.00000000000000	
4.88831300000000	47.52518300000000	771.11979099999996	56.92060500000000	0.29299400000000	0.00000000000000	0.11271200000000	0.00000000000000	0.00000000000000	0.00000000000000	0.00000000000000	0.00000000000000	0.00000000000000	0.00000000000000	21.34167000000000	0.00000000000000	0.00000000000000	0.00000000000000	0.00000000000000	
4.88998600000000	46.99220300000000	771.93924900000002	56.72882800000000	0.29218500000000	0.00000000000000	0.11270300000000	0.00000000000000	0.00000000000000	0.00000000000000	0.00000000000000	0.00000000000000	0.00000000000000	0.00000000000000	21.22531100000000	0.00000000000000	0.00000000000000	0.00000000000000	0.00000000000000	
4.89164900000000	46.47059200000000	772.68750499999999	56.53013600000000	0.29141600000000	0.00000000000000	0.11269100000000	0.00000000000000	0.00000000000000	0.00000000000000	0.00000000000000	0.00000000000000	0.00000000000000	0.00000000000000	21.10693700000000	0.00000000000000	0.00000000000000	0.00000000000000	0.00000000000000	
4.89331800000000	45.96033600000000	773.36503200000004	56.32512000000000	0.29068200000000	0.00000000000000	0.11267800000000	0.00000000000000	0.00000000000000	0.00000000000000	0.00000000000000	0.00000000000000	0.00000000000000	0.00000000000000	20.98680800000000	0.00000000000000	0.00000000000000	0.00000000000000	0.00000000000000	
4.89497900000000	45.46133100000000	773.97223099999997	56.11434100000000	0.28998400000000	0.00000000000000	0.11266200000000	0.00000000000000	0.00000000000000	0.00000000000000	0.00000000000000	0.00000000000000	0.00000000000000	0.00000000000000	20.86516500000000	0.00000000000000	0.00000000000000	0.00000000000000	0.00000000000000	
4.89664700000000	44.97338500000000	774.50944000000004	55.89833700000000	0.28931800000000	0.00000000000000	0.11264600000000	0.00000000000000	0.00000000000000	0.00000000000000	0.00000000000000	0.00000000000000	0.00000000000000	0.00000000000000	20.74223300000000	0.00000000000000	0.00000000000000	0.00000000000000	0.00000000000000	
4.89832000000000	44.49622500000000	774.97694500000000	55.67761900000000	0.28868200000000	0.00000000000000	0.11262800000000	0.00000000000000	0.00000000000000	0.00000000000000	0.00000000000000	0.00000000000000	0.00000000000000	0.00000000000000	20.61822100000000	0.00000000000000	0.00000000000000	0.00000000000000	0.00000000000000	
4.89998700000000	44.02950400000000	775.37499200000002	55.45267300000000	0.28807400000000	0.00000000000000	0.11260800000000	0.00000000000000	0.00000000000000	0.00000000000000	0.00000000000000	0.00000000000000	0.00000000000000	0.00000000000000	20.49332400000000	0.00000000000000	0.00000000000000	0.00000000000000	0.00000000000000	
4.90165600000000	43.57280200000000	775.70380299999999	55.22396600000000	0.28749000000000	0.00000000000000	0.11258800000000	0.00000000000000	0.00000000000000	0.00000000000000	0.00000000000000	0.00000000000000	0.00000000000000	0.00000000000000	20.36772500000000	0.00000000000000	0.00000000000000	0.00000000000000	0.00000000000000	
4.90331200000000	43.12563800000000	775.96358099999998	54.99194200000000	0.28692900000000	0.00000000000000	0.11256700000000	0.00000000000000	0.00000000000000	0.00000000000000	0.00000000000000	0.00000000000000	0.00000000000000	0.00000000000000	20.24159500000000	0.00000000000000	0.00000000000000	0.00000000000000	0.00000000000000	
4.90497800000000	42.68747400000000	776.15452400000004	54.75702500000000	0.28638600000000	0.00000000000000	0.11254500000000	0.00000000000000	0.00000000000000	0.00000000000000	0.00000000000000	0.00000000000000	0.00000000000000	0.00000000000000	20.11509600000000	0.00000000000000	0.00000000000000	0.00000000000000	0.00000000000000	
4.90664500000000	42.25772200000000	776.27683800000000	54.51962300000000	0.28585900000000	0.00000000000000	0.11252300000000	0.00000000000000	0.00000000000000	0.00000000000000	0.00000000000000	0.00000000000000	0.00000000000000	0.00000000000000	19.98838200000000	0.00000000000000	0.00000000000000	0.00000000000000	0.00000000000000	
4.90831700000000	41.83574900000000	776.33074299999998	54.28012700000000	0.28534600000000	0.00000000000000	0.11250000000000	0.00000000000000	0.00000000000000	0.00000000000000	0.00000000000000	0.00000000000000	0.00000000000000	0.00000000000000	19.86159700000000	0.00000000000000	0.00000000000000	0.00000000000000	0.00000000000000	
4.90997800000000	41.42088900000000	776.31648700000005	54.03891100000000	0.28484200000000	0.00000000000000	0.11247800000000	0.00000000000000	0.00000000000000	0.00000000000000	0.00000000000000	0.00000000000000	0.00000000000000	0.00000000000000	19.73488200000000	0.00000000000000	0.00000000000000	0.00000000000000	0.00000000000000	
4.91164800000000	41.01244100000000	776.23435199999994	53.79633900000000	0.28434500000000	0.00000000000000	0.11245600000000	0.00000000000000	0.00000000000000	0.00000000000000	0.00000000000000	0.00000000000000	0.00000000000000	0.00000000000000	19.60836900000000	0.00000000000000	0.00000000000000	0.00000000000000	0.00000000000000	
4.91331200000000	40.60968500000000	776.08466699999997	53.55275600000000	0.28385200000000	0.00000000000000	0.11243400000000	0.00000000000000	0.00000000000000	0.00000000000000	0.00000000000000	0.00000000000000	0.00000000000000	0.00000000000000	19.48219000000000	0.00000000000000	0.00000000000000	0.00000000000000	0.00000000000000	
4.91498000000000	40.21188100000000	775.86781099999996	53.30850000000000	0.28335900000000	0.00000000000000	0.11241300000000	0.00000000000000	0.00000000000000	0.00000000000000	0.00000000000000	0.00000000000000	0.00000000000000	0.00000000000000	19.35646700000000	0.00000000000000	0.00000000000000	0.00000000000000	0.00000000000000	
4.91664500000000	39.81828200000000	775.58422700000006	53.06389500000000	0.28286400000000	0.00000000000000	0.11239300000000	0.00000000000000	0.00000000000000	0.00000000000000	0.00000000000000	0.00000000000000	0.00000000000000	0.00000000000000	19.23132600000000	0.00000000000000	0.00000000000000	0.00000000000000	0.00000000000000	
4.91831200000000	39.42813600000000	775.23442499999999	52.81925400000000	0.28236300000000	0.00000000000000	0.11237400000000	0.00000000000000	0.00000000000000	0.00000000000000	0.00000000000000	0.00000000000000	0.00000000000000	0.00000000000000	19.10688400000000	0.00000000000000	0.00000000000000	0.00000000000000	0.00000000000000	
